<svg width="91" height="22" viewBox="0 0 91 22" fill="none" xmlns="http://www.w3.org/2000/svg">
<path d="M80.2941 21.4413V4.84277H90.8307V7.06281H82.8708V11.9055H90.4051V14.068H82.8708V19.2213H90.8307V21.4413H80.2941Z" fill="#393939"/>
<path d="M66.2999 21.7176C61.5952 21.7176 58.6045 18.4048 58.6045 13.1365V13.125C58.6045 7.8567 61.5952 4.56689 66.2999 4.56689C69.9578 4.56689 72.7069 6.82144 73.2246 10.0997L73.2476 10.2033H70.6939L70.6249 9.97321C70.0728 8.02924 68.5314 6.84445 66.2999 6.84445C63.2171 6.84445 61.2386 9.28304 61.2386 13.125V13.1365C61.2386 16.9784 63.2286 19.44 66.2999 19.44C68.5084 19.44 70.0383 18.2897 70.6594 16.1847L70.6939 16.0812H73.2476L73.2361 16.1962C72.7184 19.4975 69.9693 21.7176 66.2999 21.7176Z" fill="#393939"/>
<path d="M45.9675 3.49685L43.4599 0H45.8409L47.7504 3.49685H45.9675ZM41.3088 21.4412V4.84268H51.8454V7.06272H43.8855V11.9054H51.4198V14.0679H43.8855V19.2212H51.8454V21.4412H41.3088Z" fill="#393939"/>
<path d="M22.1268 21.4413V4.84277H28.5683C31.9617 4.84277 34.1012 6.80975 34.1012 9.92701V9.95002C34.1012 12.2046 32.8704 13.999 30.8804 14.6777L34.5958 21.4413H31.6281L28.2463 15.0688H24.7034V21.4413H22.1268ZM24.7034 12.9522H28.3153C30.3053 12.9522 31.444 11.8595 31.444 9.97302V9.95002C31.444 8.10957 30.2247 7.0053 28.2463 7.0053H24.7034V12.9522Z" fill="#393939"/>
<path d="M7.74138 21.7176C2.99073 21.7176 0 18.4048 0 13.0675V13.056C0 7.82219 2.99073 4.56689 7.70688 4.56689C11.5948 4.56689 14.0334 6.80994 14.7236 9.80067L14.7696 10.0077H12.124L12.0894 9.88119C11.3878 7.96022 9.88091 6.84445 7.71838 6.84445C4.54361 6.84445 2.62264 9.15651 2.62264 13.0445V13.056C2.62264 17.0244 4.60112 19.44 7.76439 19.44C10.456 19.44 12.3195 17.7376 12.354 15.2185V14.9424H8.06346V12.8374H14.8961V14.5398C14.8961 19.0374 12.239 21.7176 7.74138 21.7176Z" fill="#393939"/>
</svg>
