<svg width="122" height="30" viewBox="0 0 122 30" fill="none" xmlns="http://www.w3.org/2000/svg">
<path d="M107.848 28.799V6.50449H122V9.48635H111.308V15.9908H121.428V18.8954H111.308V25.8171H122V28.799H107.848Z" fill="#393939"/>
<path d="M89.0512 29.1697C82.7321 29.1697 78.7151 24.7201 78.7151 17.644V17.6285C78.7151 10.5524 82.7321 6.13367 89.0512 6.13367C93.9643 6.13367 97.6569 9.16188 98.3521 13.5652L98.383 13.7042H94.9531L94.8604 13.3952C94.1188 10.7841 92.0485 9.19278 89.0512 9.19278C84.9106 9.19278 82.2532 12.4682 82.2532 17.6285V17.644C82.2532 22.8043 84.926 26.1106 89.0512 26.1106C92.0176 26.1106 94.0725 24.5656 94.9068 21.7382L94.9531 21.5992H98.383L98.3676 21.7537C97.6723 26.1879 93.9798 29.1697 89.0512 29.1697Z" fill="#393939"/>
<path d="M61.7415 4.69682L58.3734 0H61.5716L64.1363 4.69682H61.7415ZM55.4843 28.7989V6.50448H69.6365V9.48635H58.9451V15.9908H69.0649V18.8954H58.9451V25.8171H69.6365V28.7989H55.4843Z" fill="#393939"/>
<path d="M29.7197 28.799V6.50449H38.3718C42.9295 6.50449 45.8033 9.14645 45.8033 13.3334V13.3643C45.8033 16.3925 44.1501 18.8027 41.4772 19.7143L46.4676 28.799H42.4815L37.9392 20.2396H33.1805V28.799H29.7197ZM33.1805 17.3968H38.0319C40.7047 17.3968 42.2343 15.929 42.2343 13.3952V13.3643C42.2343 10.8923 40.5966 9.4091 37.9392 9.4091H33.1805V17.3968Z" fill="#393939"/>
<path d="M10.3979 29.1697C4.01702 29.1697 0 24.7201 0 17.5513V17.5358C0 10.506 4.01702 6.13367 10.3516 6.13367C15.5737 6.13367 18.8491 9.14643 19.7761 13.1635L19.8379 13.4416H16.2844L16.238 13.2716C15.2956 10.6914 13.2716 9.19278 10.367 9.19278C6.10278 9.19278 3.52262 12.2982 3.52262 17.5204V17.5358C3.52262 22.8661 6.18003 26.1106 10.4288 26.1106C14.0441 26.1106 16.547 23.824 16.5934 20.4404V20.0696H10.8305V17.2423H20.0079V19.5289C20.0079 25.5699 16.4389 29.1697 10.3979 29.1697Z" fill="#393939"/>
</svg>
